<svg width="64" height="64" viewBox="0 0 64 64" fill="none" xmlns="http://www.w3.org/2000/svg">
<path fill-rule="evenodd" clip-rule="evenodd" d="M7.61651 34.7102C6.05638 33.15 4.84731 31.2748 4.07012 29.2099C3.29293 27.1449 2.96555 24.9379 3.10985 22.7363C3.25415 20.5346 3.86682 18.3892 4.90688 16.4434C5.94695 14.4975 7.39045 12.7962 9.14086 11.453C10.8913 10.1099 12.9083 9.15592 15.057 8.65491C17.2057 8.1539 19.4366 8.11739 21.6006 8.54783C23.7645 8.97827 25.8116 9.86573 27.6051 11.1509C29.3985 12.436 30.8969 14.0892 32.0001 16C33.1032 14.0892 34.6016 12.436 36.395 11.1509C38.1885 9.86573 40.2356 8.97827 42.3996 8.54783C44.5635 8.11739 46.7944 8.1539 48.9431 8.65491C51.0918 9.15592 53.1088 10.1099 54.8593 11.453C56.6097 12.7962 58.0532 14.4975 59.0932 16.4434C60.1333 18.3892 60.746 20.5346 60.8903 22.7363C61.0346 24.9379 60.7072 27.1449 59.93 29.2099C59.1528 31.2748 57.9437 33.15 56.3836 34.7102L32.0001 58.0376L7.61651 34.7102Z" stroke="white" stroke-width="6" stroke-linejoin="round"/>
</svg>
