<svg width="72" height="48" viewBox="0 0 72 48" fill="none" xmlns="http://www.w3.org/2000/svg">
<path fill-rule="evenodd" clip-rule="evenodd" d="M3 17C3 12.0294 7.02944 8 12 8H55C59.9706 8 64 12.0294 64 17V31C64 35.9706 59.9706 40 55 40H12C7.02944 40 3 35.9706 3 31V17ZM12 10C8.13401 10 5 13.134 5 17V31C5 34.866 8.13401 38 12 38H55C58.866 38 62 34.866 62 31V17C62 13.134 58.866 10 55 10H12Z" fill="#9C9C9C"/>
<path d="M8 17C8 14.7909 9.79086 13 12 13H55C57.2091 13 59 14.7909 59 17V31C59 33.2091 57.2091 35 55 35H12C9.79086 35 8 33.2091 8 31V17Z" fill="white"/>
<path fill-rule="evenodd" clip-rule="evenodd" d="M66 29.657C66.0996 29.6218 66.1983 29.5839 66.2961 29.5434C67.0241 29.2419 67.6855 28.7999 68.2426 28.2428C68.7998 27.6856 69.2418 27.0242 69.5433 26.2962C69.8448 25.5683 70 24.788 70 24.0001C70 23.2122 69.8448 22.432 69.5433 21.704C69.2418 20.9761 68.7998 20.3146 68.2426 19.7575C67.6855 19.2003 67.0241 18.7584 66.2961 18.4568C66.1983 18.4163 66.0996 18.3785 66 18.3433V29.657Z" fill="#9C9C9C"/>
</svg>
