<svg width="64" height="64" viewBox="0 0 64 64" fill="none" xmlns="http://www.w3.org/2000/svg">
<g clip-path="url(#clip0_2_1273)">
<path d="M3.55723 26.3424C2.18464 33.2428 3.36745 40.407 6.88527 46.5L3.55723 60.4428L17.5 57.1147C23.593 60.6326 30.7572 61.8154 37.6576 60.4428C44.5581 59.0702 50.7242 55.2358 55.0072 49.6541C59.2903 44.0723 61.3981 37.1239 60.9379 30.1033C60.4778 23.0827 57.481 16.4689 52.5061 11.4939C47.5311 6.51895 40.9173 3.52224 33.8967 3.06209C26.8761 2.60194 19.9277 4.70973 14.3459 8.99275C8.76417 13.2758 4.92981 19.4419 3.55723 26.3424Z" stroke="white" stroke-width="6" stroke-linejoin="round"/>
<path d="M25.5442 22.6183C25.0789 22.2825 24.427 22.4063 24.1172 22.8894L14 38.6667L23.53 32.2266C24.2253 31.7568 25.1399 31.7709 25.8203 32.262L38.4558 41.3817C38.9211 41.7175 39.573 41.5937 39.8828 41.1106L50 25.3333L40.47 31.7734C39.7747 32.2432 38.8601 32.2291 38.1797 31.738L25.5442 22.6183Z" fill="white"/>
</g>
<defs>
<clipPath id="clip0_2_1273">
<rect width="64" height="64" fill="white"/>
</clipPath>
</defs>
</svg>
