<svg width="64" height="64" viewBox="0 0 64 64" fill="none" xmlns="http://www.w3.org/2000/svg">
<path fill-rule="evenodd" clip-rule="evenodd" d="M62 30.7814C62 29.6475 61.5187 28.5668 60.6759 27.8083L34.676 4.40828C33.1548 3.03918 30.8455 3.03917 29.3243 4.40827L3.32415 27.8083C2.48129 28.5668 2 29.6475 2 30.7815V60C2 61.1046 2.89543 62 4 62H22C23.1046 62 24 61.1046 24 60V44C24 39.5817 27.5817 36 32 36C36.4183 36 40 39.5817 40 44V60C40 61.1046 40.8954 62 42 62H60C61.1046 62 62 61.1046 62 60V30.7814Z" fill="white"/>
</svg>
