<svg width="56" height="56" viewBox="0 0 56 56" fill="none" xmlns="http://www.w3.org/2000/svg">
<path fill-rule="evenodd" clip-rule="evenodd" d="M33 10C33 12.7614 30.7614 15 28 15C25.2386 15 23 12.7614 23 10C23 7.23858 25.2386 5 28 5C30.7614 5 33 7.23858 33 10ZM33 28C33 30.7614 30.7614 33 28 33C25.2386 33 23 30.7614 23 28C23 25.2386 25.2386 23 28 23C30.7614 23 33 25.2386 33 28ZM28 51C30.7614 51 33 48.7614 33 46C33 43.2386 30.7614 41 28 41C25.2386 41 23 43.2386 23 46C23 48.7614 25.2386 51 28 51Z" fill="white"/>
</svg>
