<svg width="48" height="48" viewBox="0 0 48 48" fill="none" xmlns="http://www.w3.org/2000/svg">
<path d="M24.0012 14.6458C30.3852 14.646 36.5251 17.1307 41.1519 21.5863C41.5003 21.9302 42.0572 21.9259 42.4003 21.5765L45.7308 18.1719C45.9046 17.9947 46.0014 17.7547 46 17.505C45.9985 17.2552 45.8989 17.0164 45.7231 16.8412C33.5794 5.05292 14.4211 5.05292 2.27737 16.8412C2.10145 17.0162 2.00164 17.255 2.00002 17.5048C1.9984 17.7545 2.0951 17.9946 2.26872 18.1719L5.60014 21.5765C5.94306 21.9264 6.50038 21.9308 6.84858 21.5863C11.4759 17.1304 17.6166 14.6457 24.0012 14.6458ZM24.0012 25.7224C27.5088 25.7221 30.8913 27.0427 33.4913 29.4275C33.8429 29.766 34.3969 29.7587 34.7397 29.411L38.0663 26.0064C38.2415 25.8278 38.3387 25.5856 38.3362 25.3338C38.3337 25.0821 38.2316 24.8419 38.0529 24.6669C30.1353 17.2068 17.8739 17.2068 9.95624 24.6669C9.77739 24.8419 9.67535 25.0822 9.673 25.334C9.67066 25.5858 9.7682 25.8281 9.94375 26.0064L13.2694 29.411C13.6122 29.7587 14.1662 29.766 14.5178 29.4275C17.1162 27.0443 20.4959 25.7238 24.0012 25.7224ZM30.3942 33.8477C30.5721 33.6708 30.6701 33.4274 30.665 33.175C30.6599 32.9225 30.5522 32.6834 30.3673 32.514C26.6923 29.3656 21.3101 29.3656 17.6351 32.514C17.4501 32.6833 17.3422 32.9223 17.3369 33.1748C17.3317 33.4272 17.4295 33.6707 17.6073 33.8477L23.3626 39.7298C23.5313 39.9027 23.7612 40 24.0012 40C24.2412 40 24.4711 39.9027 24.6398 39.7298L30.3942 33.8477Z" fill="white"/>
</svg>
